<svg width="1127" height="1004" viewBox="0 0 1127 1004" fill="none" xmlns="http://www.w3.org/2000/svg">
<circle cx="613.107" cy="391.107" r="498.5" transform="rotate(-75 613.107 391.107)" stroke="#ECECEC" stroke-opacity="0.03" stroke-width="3"/>
<circle cx="612.494" cy="391.46" r="378" transform="rotate(-75 612.494 391.46)" stroke="#ECECEC" stroke-opacity="0.03" stroke-width="3"/>
<circle cx="612.494" cy="391.46" r="267" transform="rotate(-75 612.494 391.46)" stroke="#ECECEC" stroke-opacity="0.03" stroke-width="3"/>
<circle cx="613.107" cy="391.107" r="187.5" transform="rotate(-75 613.107 391.107)" stroke="#ECECEC" stroke-opacity="0.03" stroke-width="3"/>
<circle cx="456.442" cy="288.047" r="20" transform="rotate(-75 456.442 288.047)" fill="#ECECEC" fill-opacity="0.03"/>
<circle cx="203.474" cy="105.867" r="10.5" transform="rotate(-75 203.474 105.867)" fill="#ECECEC" fill-opacity="0.03"/>
<circle cx="1028.38" cy="110.526" r="10.5" transform="rotate(-75 1028.38 110.526)" fill="#ECECEC" fill-opacity="0.03"/>
<circle cx="476.188" cy="743.683" r="20" transform="rotate(-75 476.188 743.683)" fill="#ECECEC" fill-opacity="0.03"/>
<circle cx="475.576" cy="744.037" r="10.5" transform="rotate(-75 475.576 744.037)" fill="#ECECEC" fill-opacity="0.03"/>
<circle cx="455.83" cy="288.401" r="10.5" transform="rotate(-75 455.83 288.401)" fill="#0062FF"/>
<circle cx="240.737" cy="457.492" r="10.5" transform="rotate(-75 240.737 457.492)" fill="#3DD598"/>
<circle cx="813.517" cy="568.522" r="10.5" transform="rotate(-75 813.517 568.522)" fill="#FF565E"/>
<circle cx="144.823" cy="564.308" r="10.5" transform="rotate(-75 144.823 564.308)" fill="#FFC542"/>
</svg>
