<svg width="193" height="57" viewBox="0 0 193 57" fill="none" xmlns="http://www.w3.org/2000/svg">
<g clip-path="url(#clip0)">
<path d="M177.529 6.31788e-05H15.8021C15.2126 6.31788e-05 14.6302 6.31789e-05 14.0422 0.00291316C13.55 0.00576315 13.0618 0.0140424 12.5649 0.0210106C11.4854 0.0322706 10.4084 0.116451 9.34338 0.272821C8.27982 0.432595 7.24958 0.733814 6.2875 1.16629C5.32659 1.60243 4.44858 2.16914 3.68533 2.84587C2.91806 3.5207 2.27849 4.30071 1.7912 5.15592C1.30257 6.00941 0.963744 6.92402 0.786439 7.86813C0.607449 8.81106 0.511132 9.76486 0.498354 10.721C0.483436 11.1579 0.48186 11.5962 0.473999 12.0332V44.9708C0.48186 45.4133 0.483436 45.8419 0.498354 46.2845C0.511136 47.2406 0.607453 48.1944 0.786439 49.1372C0.963255 50.0819 1.3021 50.997 1.7912 51.8509C2.27827 52.7033 2.91793 53.4801 3.68533 54.1512C4.44569 54.831 5.32426 55.3981 6.2875 55.8309C7.24957 56.2645 8.27971 56.5675 9.34338 56.7297C10.4086 56.8849 11.4855 56.9691 12.5649 56.9817C13.0618 56.9914 13.55 56.9969 14.0422 56.9969C14.6301 56.9998 15.2126 56.9998 15.8021 56.9998H177.529C178.106 56.9998 178.693 56.9998 179.271 56.9969C179.761 56.9969 180.263 56.9914 180.753 56.9817C181.831 56.9697 182.905 56.8855 183.969 56.7297C185.036 56.5664 186.069 56.2634 187.036 55.8309C187.999 55.3978 188.876 54.8307 189.636 54.1512C190.401 53.4775 191.042 52.7012 191.536 51.8509C192.021 50.9964 192.357 50.0814 192.531 49.1372C192.71 48.1942 192.81 47.2407 192.829 46.2845C192.835 45.8419 192.835 45.4133 192.835 44.9708C192.848 44.4531 192.848 43.9383 192.848 43.4122V13.589C192.848 13.0671 192.848 12.5495 192.835 12.0332C192.835 11.5962 192.835 11.1579 192.829 10.7209C192.81 9.76472 192.71 8.81113 192.531 7.86808C192.356 6.92451 192.021 6.00998 191.536 5.15586C190.543 3.4417 188.97 2.04639 187.036 1.16616C186.069 0.734743 185.036 0.433604 183.969 0.272693C182.906 0.115634 181.831 0.0314241 180.753 0.0208111C180.263 0.0138571 179.761 0.00550665 179.271 0.00272792C178.693 -0.00012207 178.106 -0.00012207 177.529 -0.00012207V6.31788e-05Z" fill="#A6A6A6"/>
<path d="M13.9115 55.7571C13.4209 55.7571 12.9421 55.7516 12.4552 55.7419C11.4468 55.7302 10.4407 55.6525 9.44519 55.5094C8.51695 55.3679 7.61773 55.1047 6.77719 54.7285C5.94436 54.3554 5.18476 53.8661 4.52747 53.2795C3.86067 52.6998 3.30553 52.0275 2.88405 51.2891C2.45792 50.546 2.16301 49.7494 2.0096 48.9271C1.84393 48.0436 1.7543 47.1502 1.74147 46.2547C1.73126 45.9541 1.7179 44.9533 1.7179 44.9533V12.0283C1.7179 12.0283 1.73213 11.0428 1.74155 10.7533C1.75383 9.85917 1.84295 8.96718 2.00812 8.08503C2.16181 7.26053 2.45695 6.46165 2.88331 5.71606C3.30324 4.9782 3.8553 4.30535 4.51808 3.72357C5.18012 3.13627 5.94216 2.64452 6.7764 2.26625C7.61501 1.89124 8.51253 1.62989 9.4389 1.49098C10.4377 1.34641 11.4473 1.26825 12.4592 1.25715L13.9123 1.23975H179.41L180.881 1.25785C181.883 1.26839 182.884 1.34586 183.873 1.48959C184.809 1.63024 185.716 1.89341 186.564 2.27043C188.235 3.03274 189.595 4.23879 190.453 5.71954C190.873 6.45998 191.163 7.25235 191.315 8.06973C191.482 8.95911 191.576 9.85811 191.595 10.7595C191.6 11.1632 191.6 11.5968 191.6 12.0283C191.612 12.5627 191.612 13.0715 191.612 13.5844V43.4138C191.612 43.9316 191.612 44.4369 191.6 44.9463C191.6 45.4098 191.6 45.8344 191.593 46.2714C191.575 47.1567 191.483 48.0397 191.318 48.9132C191.168 49.7413 190.875 50.5441 190.449 51.2934C190.024 52.0237 189.472 52.6903 188.813 53.2684C188.155 53.8582 187.394 54.3503 186.56 54.7258C185.714 55.1049 184.808 55.3691 183.873 55.5094C182.878 55.6533 181.872 55.731 180.863 55.7419C180.392 55.7516 179.898 55.7571 179.418 55.7571L177.672 55.76L13.9115 55.7571Z" fill="black"/>
<path d="M47.2094 28.9281C47.2247 27.7388 47.5406 26.5726 48.1277 25.5381C48.7149 24.5036 49.5541 23.6345 50.5674 23.0115C49.9237 22.0921 49.0745 21.3356 48.0872 20.8018C47.1 20.2681 46.0018 19.9719 44.8801 19.9368C42.4872 19.6856 40.1673 21.3687 38.948 21.3687C37.705 21.3687 35.8276 19.9617 33.8059 20.0033C32.4982 20.0456 31.2238 20.4259 30.1067 21.1071C28.9897 21.7883 28.0682 22.7473 27.432 23.8905C24.6761 28.662 26.7317 35.6745 29.3717 39.5314C30.6925 41.42 32.2362 43.5296 34.256 43.4548C36.2326 43.3728 36.9708 42.1944 39.3567 42.1944C41.7204 42.1944 42.413 43.4548 44.4738 43.4072C46.5947 43.3728 47.931 41.5102 49.2055 39.6037C50.1545 38.258 50.8848 36.7707 51.3693 35.1969C50.1371 34.6758 49.0855 33.8034 48.3458 32.6887C47.606 31.5739 47.2108 30.266 47.2094 28.9281Z" fill="white"/>
<path d="M43.3171 17.4004C44.4735 16.0121 45.0433 14.2278 44.9053 12.4263C43.1385 12.6118 41.5066 13.4562 40.3345 14.7912C39.7615 15.4434 39.3226 16.2021 39.0429 17.024C38.7633 17.8459 38.6484 18.7148 38.7047 19.5812C39.5884 19.5903 40.4627 19.3987 41.2616 19.021C42.0606 18.6432 42.7634 18.0891 43.3171 17.4004Z" fill="white"/>
<path d="M72.1945 38.6739H65.4494L63.8296 43.4568H60.9727L67.3615 25.7612H70.3297L76.7185 43.4568H73.8129L72.1945 38.6739ZM66.148 36.4668H71.4946L68.8589 28.7045H68.7851L66.148 36.4668Z" fill="white"/>
<path d="M90.5162 37.0068C90.5162 41.016 88.3704 43.5918 85.1322 43.5918C84.3119 43.6347 83.4961 43.4458 82.7782 43.0466C82.0602 42.6474 81.4693 42.0541 81.0729 41.3346H81.0116V47.7248H78.3634V30.5553H80.9268V32.7012H80.9755C81.3901 31.9852 81.991 31.3949 82.7144 30.9933C83.4378 30.5917 84.2565 30.3937 85.0835 30.4203C88.3578 30.4204 90.5162 33.0087 90.5162 37.0068ZM87.7943 37.0068C87.7943 34.3948 86.4444 32.6775 84.3849 32.6775C82.3615 32.6775 81.0005 34.4309 81.0005 37.0068C81.0005 39.6063 82.3615 41.3472 84.3849 41.3472C86.4444 41.3472 87.7943 39.6425 87.7943 37.0068Z" fill="white"/>
<path d="M104.716 37.0068C104.716 41.016 102.57 43.5918 99.332 43.5918C98.5117 43.6347 97.6959 43.4457 96.978 43.0465C96.2601 42.6473 95.6691 42.0541 95.2727 41.3346H95.2114V47.7248H92.5632V30.5553H95.1265V32.7012H95.1752C95.5899 31.9852 96.1908 31.3949 96.9142 30.9933C97.6376 30.5917 98.4563 30.3937 99.2832 30.4203C102.558 30.4203 104.716 33.0087 104.716 37.0068ZM101.994 37.0068C101.994 34.3948 100.644 32.6775 98.5847 32.6775C96.5613 32.6775 95.2003 34.4309 95.2003 37.0068C95.2003 39.6063 96.5613 41.3472 98.5847 41.3472C100.644 41.3472 101.994 39.6424 101.994 37.0068H101.994Z" fill="white"/>
<path d="M114.101 38.5264C114.297 40.2812 116.002 41.4334 118.331 41.4334C120.564 41.4334 122.169 40.2811 122.169 38.6989C122.169 37.3254 121.201 36.503 118.908 35.9393L116.614 35.3869C113.365 34.602 111.856 33.0824 111.856 30.6165C111.856 27.5633 114.517 25.4662 118.295 25.4662C122.034 25.4662 124.598 27.5633 124.684 30.6165H122.011C121.851 28.8505 120.391 27.7846 118.258 27.7846C116.124 27.7846 114.665 28.8631 114.665 30.4328C114.665 31.6838 115.597 32.42 117.878 32.9835L119.827 33.4622C123.458 34.3209 124.967 35.7793 124.967 38.3676C124.967 41.6782 122.329 43.7517 118.135 43.7517C114.211 43.7517 111.561 41.7269 111.39 38.5262L114.101 38.5264Z" fill="white"/>
<path d="M130.682 27.5021V30.5552H133.135V32.6524H130.682V39.7648C130.682 40.8697 131.173 41.3846 132.252 41.3846C132.543 41.3795 132.834 41.3591 133.123 41.3233V43.408C132.638 43.4986 132.145 43.5396 131.652 43.5304C129.04 43.5304 128.021 42.5493 128.021 40.0473V32.6524H126.145V30.5552H128.021V27.5021H130.682Z" fill="white"/>
<path d="M134.556 37.0067C134.556 32.9474 136.947 30.3966 140.675 30.3966C144.415 30.3966 146.795 32.9473 146.795 37.0067C146.795 41.0771 144.428 43.6168 140.675 43.6168C136.923 43.6168 134.556 41.0771 134.556 37.0067ZM144.097 37.0067C144.097 34.2221 142.821 32.5786 140.675 32.5786C138.529 32.5786 137.254 34.2346 137.254 37.0067C137.254 39.8024 138.529 41.4333 140.675 41.4333C142.821 41.4333 144.097 39.8024 144.097 37.0067H144.097Z" fill="white"/>
<path d="M148.979 30.5552H151.504V32.7511H151.566C151.736 32.0653 152.138 31.4592 152.703 31.0347C153.268 30.6102 153.963 30.3932 154.669 30.4202C154.974 30.4191 155.278 30.4523 155.576 30.519V32.9961C155.191 32.8783 154.789 32.8243 154.386 32.836C154.002 32.8204 153.618 32.8883 153.262 33.0349C152.906 33.1815 152.586 33.4034 152.324 33.6854C152.062 33.9674 151.864 34.3028 151.743 34.6685C151.623 35.0343 151.583 35.4217 151.627 35.8043V43.4567H148.979L148.979 30.5552Z" fill="white"/>
<path d="M167.786 39.6674C167.43 42.0095 165.149 43.6168 162.231 43.6168C158.477 43.6168 156.148 41.1021 156.148 37.0679C156.148 33.0212 158.49 30.3966 162.119 30.3966C165.689 30.3966 167.933 32.8486 167.933 36.7604V37.6677H158.821V37.8277C158.779 38.3025 158.839 38.7808 158.996 39.2309C159.153 39.681 159.404 40.0925 159.732 40.4381C160.06 40.7838 160.458 41.0556 160.899 41.2356C161.341 41.4156 161.816 41.4996 162.292 41.482C162.918 41.5407 163.546 41.3957 164.082 41.0688C164.619 40.7418 165.036 40.2503 165.271 39.6674L167.786 39.6674ZM158.834 35.8169H165.284C165.308 35.3899 165.243 34.9627 165.094 34.562C164.944 34.1613 164.714 33.7957 164.417 33.4882C164.12 33.1808 163.762 32.9381 163.367 32.7753C162.972 32.6125 162.547 32.5333 162.119 32.5424C161.688 32.5399 161.261 32.6227 160.861 32.7862C160.462 32.9497 160.1 33.1907 159.794 33.4951C159.489 33.7995 159.247 34.1614 159.082 34.5599C158.917 34.9584 158.833 35.3856 158.834 35.8169V35.8169Z" fill="white"/>
<path d="M65.8158 12.4417C66.3709 12.4018 66.9281 12.4857 67.4469 12.6872C67.9658 12.8888 68.4334 13.203 68.8162 13.6071C69.1989 14.0113 69.4872 14.4953 69.6602 15.0244C69.8332 15.5535 69.8866 16.1143 69.8166 16.6665C69.8166 19.3829 68.3485 20.9444 65.8158 20.9444H62.7445V12.4417H65.8158ZM64.0651 19.7419H65.6682C66.065 19.7656 66.462 19.7006 66.8304 19.5515C67.1988 19.4024 67.5294 19.1731 67.798 18.8801C68.0666 18.5872 68.2665 18.2381 68.3831 17.8581C68.4998 17.4782 68.5302 17.077 68.4723 16.6839C68.526 16.2922 68.4925 15.8936 68.374 15.5164C68.2556 15.1393 68.0552 14.793 67.7872 14.5024C67.5192 14.2118 67.1903 13.9841 66.8239 13.8355C66.4576 13.687 66.0629 13.6213 65.6682 13.6432H64.0651V19.7419Z" fill="white"/>
<path d="M71.3081 17.7333C71.2678 17.3116 71.316 16.8861 71.4498 16.4842C71.5835 16.0822 71.7997 15.7127 72.0846 15.3992C72.3696 15.0857 72.7169 14.8352 73.1042 14.6639C73.4916 14.4925 73.9106 14.4039 74.3342 14.4039C74.7578 14.4039 75.1767 14.4925 75.5641 14.6639C75.9515 14.8352 76.2988 15.0857 76.5837 15.3992C76.8686 15.7127 77.0848 16.0822 77.2186 16.4842C77.3523 16.8861 77.4005 17.3116 77.3602 17.7333C77.4013 18.1554 77.3536 18.5814 77.2203 18.984C77.0869 19.3866 76.8708 19.7568 76.5858 20.0709C76.3008 20.385 75.9532 20.636 75.5655 20.8078C75.1777 20.9795 74.7583 21.0683 74.3342 21.0683C73.91 21.0683 73.4906 20.9795 73.1029 20.8078C72.7151 20.636 72.3675 20.385 72.0825 20.0709C71.7976 19.7568 71.5814 19.3866 71.4481 18.984C71.3147 18.5814 71.267 18.1554 71.3081 17.7333ZM76.0576 17.7333C76.0576 16.3424 75.4328 15.529 74.3362 15.529C73.2355 15.529 72.6163 16.3424 72.6163 17.7333C72.6163 19.1353 73.2355 19.9424 74.3362 19.9424C75.4328 19.9424 76.0577 19.1297 76.0577 17.7333H76.0576Z" fill="white"/>
<path d="M85.4053 20.9442H84.0916L82.7655 16.2184H82.6653L81.3446 20.9442H80.0435L78.2748 14.5276H79.5592L80.7087 19.4239H80.8033L82.1226 14.5276H83.3374L84.6566 19.4239H84.7568L85.9007 14.5276H87.1671L85.4053 20.9442Z" fill="white"/>
<path d="M88.6547 14.5276H89.8737V15.547H89.9683C90.1289 15.1809 90.3996 14.874 90.7429 14.669C91.0861 14.4641 91.4847 14.3714 91.8832 14.4038C92.1954 14.3803 92.5089 14.4274 92.8004 14.5415C93.092 14.6557 93.3541 14.8339 93.5674 15.0631C93.7807 15.2923 93.9397 15.5666 94.0326 15.8656C94.1255 16.1646 94.15 16.4806 94.1041 16.7904V20.9442H92.8378V17.1084C92.8378 16.0772 92.3897 15.5644 91.4532 15.5644C91.2412 15.5545 91.0296 15.5906 90.8328 15.6701C90.6361 15.7497 90.4589 15.8709 90.3134 16.0253C90.1679 16.1797 90.0575 16.3638 89.9897 16.5649C89.922 16.7661 89.8986 16.9794 89.921 17.1905V20.9443H88.6547L88.6547 14.5276Z" fill="white"/>
<path d="M96.1219 12.0227H97.3883V20.9442H96.1219V12.0227Z" fill="white"/>
<path d="M99.1483 17.7331C99.108 17.3114 99.1563 16.8859 99.29 16.484C99.4238 16.082 99.6401 15.7124 99.925 15.399C100.21 15.0855 100.557 14.835 100.945 14.6636C101.332 14.4922 101.751 14.4037 102.175 14.4037C102.598 14.4037 103.017 14.4922 103.405 14.6636C103.792 14.835 104.139 15.0855 104.424 15.399C104.709 15.7124 104.926 16.082 105.059 16.484C105.193 16.8859 105.241 17.3114 105.201 17.7331C105.242 18.1553 105.194 18.5813 105.061 18.9839C104.928 19.3865 104.711 19.7567 104.426 20.0708C104.141 20.3849 103.794 20.6359 103.406 20.8076C103.018 20.9794 102.599 21.0681 102.175 21.0681C101.751 21.0681 101.331 20.9794 100.943 20.8076C100.556 20.6359 100.208 20.3849 99.923 20.0708C99.6379 19.7567 99.4218 19.3865 99.2884 18.9839C99.155 18.5813 99.1073 18.1553 99.1483 17.7331ZM103.898 17.7331C103.898 16.3422 103.273 15.5289 102.176 15.5289C101.076 15.5289 100.456 16.3422 100.456 17.7331C100.456 19.1352 101.076 19.9423 102.176 19.9423C103.273 19.9423 103.898 19.1296 103.898 17.7331H103.898Z" fill="white"/>
<path d="M106.535 19.1295C106.535 17.9745 107.395 17.3086 108.921 17.214L110.659 17.1138V16.56C110.659 15.8822 110.211 15.4996 109.346 15.4996C108.639 15.4996 108.149 15.7591 108.008 16.2128H106.782C106.912 15.1106 107.948 14.4037 109.404 14.4037C111.013 14.4037 111.92 15.2045 111.92 16.56V20.9442H110.701V20.0424H110.601C110.397 20.3659 110.112 20.6296 109.773 20.8066C109.435 20.9836 109.055 21.0675 108.673 21.0499C108.404 21.0779 108.132 21.0492 107.874 20.9655C107.617 20.8819 107.379 20.7452 107.178 20.5643C106.976 20.3833 106.815 20.1622 106.704 19.9151C106.593 19.668 106.536 19.4004 106.535 19.1295ZM110.659 18.5812V18.0448L109.092 18.145C108.209 18.2041 107.808 18.5047 107.808 19.0704C107.808 19.6479 108.309 19.984 108.998 19.984C109.2 20.0044 109.403 19.984 109.597 19.924C109.791 19.8641 109.971 19.7657 110.126 19.6348C110.281 19.504 110.408 19.3432 110.5 19.1622C110.591 18.9812 110.646 18.7836 110.659 18.5812Z" fill="white"/>
<path d="M113.584 17.7331C113.584 15.7056 114.627 14.4211 116.248 14.4211C116.649 14.4027 117.047 14.4987 117.395 14.6981C117.744 14.8974 118.028 15.1918 118.216 15.5469H118.31V12.0227H119.577V20.9442H118.363V19.9304H118.263C118.061 20.2831 117.767 20.5739 117.412 20.7712C117.056 20.9685 116.654 21.0649 116.248 21.05C114.616 21.05 113.584 19.7656 113.584 17.7331ZM114.892 17.7331C114.892 19.0941 115.534 19.9131 116.607 19.9131C117.674 19.9131 118.334 19.0823 118.334 17.7387C118.334 16.4014 117.667 15.5588 116.607 15.5588C115.541 15.5588 114.892 16.3833 114.892 17.7331H114.892Z" fill="white"/>
<path d="M124.816 17.7333C124.775 17.3116 124.823 16.8861 124.957 16.4842C125.091 16.0822 125.307 15.7127 125.592 15.3992C125.877 15.0857 126.224 14.8352 126.612 14.6639C126.999 14.4925 127.418 14.4039 127.842 14.4039C128.265 14.4039 128.684 14.4925 129.072 14.6639C129.459 14.8352 129.806 15.0857 130.091 15.3992C130.376 15.7127 130.592 16.0822 130.726 16.4842C130.86 16.8861 130.908 17.3116 130.868 17.7333C130.909 18.1554 130.861 18.5814 130.728 18.984C130.594 19.3866 130.378 19.7568 130.093 20.0709C129.808 20.385 129.461 20.636 129.073 20.8078C128.685 20.9795 128.266 21.0683 127.842 21.0683C127.417 21.0683 126.998 20.9795 126.61 20.8078C126.223 20.636 125.875 20.385 125.59 20.0709C125.305 19.7568 125.089 19.3866 124.956 18.984C124.822 18.5814 124.774 18.1554 124.816 17.7333ZM129.565 17.7333C129.565 16.3424 128.94 15.529 127.844 15.529C126.743 15.529 126.124 16.3424 126.124 17.7333C126.124 19.1353 126.743 19.9424 127.844 19.9424C128.94 19.9424 129.565 19.1297 129.565 17.7333Z" fill="white"/>
<path d="M132.567 14.5276H133.786V15.547H133.881C134.041 15.1809 134.312 14.874 134.655 14.669C134.999 14.4641 135.397 14.3714 135.796 14.4038C136.108 14.3803 136.421 14.4274 136.713 14.5415C137.004 14.6557 137.267 14.8339 137.48 15.0631C137.693 15.2923 137.852 15.5666 137.945 15.8656C138.038 16.1646 138.062 16.4806 138.017 16.7904V20.9442H136.75V17.1084C136.75 16.0772 136.302 15.5644 135.366 15.5644C135.154 15.5545 134.942 15.5906 134.745 15.6701C134.549 15.7497 134.371 15.8709 134.226 16.0253C134.08 16.1797 133.97 16.3638 133.902 16.5649C133.834 16.7661 133.811 16.9794 133.833 17.1905V20.9443H132.567V14.5276Z" fill="white"/>
<path d="M145.172 12.9301V14.5568H146.562V15.6235H145.172V18.923C145.172 19.5951 145.449 19.8894 146.079 19.8894C146.241 19.8889 146.402 19.8791 146.562 19.8602V20.915C146.335 20.9557 146.105 20.9773 145.873 20.9797C144.465 20.9797 143.904 20.4843 143.904 19.2472V15.6234H142.886V14.5568H143.904V12.9301H145.172Z" fill="white"/>
<path d="M148.292 12.0227H149.547V15.5588H149.648C149.816 15.1892 150.094 14.8806 150.444 14.6749C150.794 14.4692 151.199 14.3765 151.604 14.4093C151.915 14.3924 152.225 14.4443 152.513 14.5612C152.802 14.6781 153.061 14.8572 153.272 15.0856C153.483 15.3141 153.641 15.5864 153.734 15.883C153.828 16.1795 153.855 16.4932 153.814 16.8014V20.9442H152.546V17.1138C152.546 16.0889 152.069 15.5699 151.174 15.5699C150.957 15.552 150.738 15.5819 150.533 15.6575C150.328 15.7331 150.142 15.8526 149.988 16.0075C149.834 16.1625 149.716 16.3492 149.642 16.5546C149.568 16.76 149.539 16.9791 149.559 17.1966V20.9442H148.292L148.292 12.0227Z" fill="white"/>
<path d="M161.198 19.2116C161.026 19.7981 160.653 20.3053 160.145 20.6447C159.637 20.9841 159.025 21.1339 158.418 21.068C157.995 21.0792 157.575 20.9982 157.186 20.8307C156.798 20.6632 156.451 20.4133 156.169 20.0982C155.887 19.783 155.677 19.4103 155.553 19.0059C155.43 18.6014 155.396 18.1749 155.454 17.756C155.397 17.3358 155.432 16.9084 155.555 16.5028C155.678 16.0971 155.887 15.7227 156.168 15.4048C156.448 15.0869 156.794 14.833 157.181 14.6603C157.568 14.4876 157.988 14.4001 158.412 14.4037C160.197 14.4037 161.275 15.6235 161.275 17.6384V18.0803H156.744V18.1512C156.724 18.3867 156.753 18.6237 156.83 18.8471C156.908 19.0705 157.03 19.2753 157.191 19.4483C157.352 19.6214 157.548 19.7589 157.765 19.8521C157.982 19.9453 158.216 19.9921 158.452 19.9895C158.755 20.0259 159.062 19.9713 159.334 19.8328C159.606 19.6943 159.83 19.478 159.979 19.2116L161.198 19.2116ZM156.743 17.1437H159.985C160 16.9284 159.971 16.712 159.899 16.5087C159.826 16.3053 159.712 16.1194 159.563 15.9628C159.414 15.8063 159.234 15.6826 159.035 15.5997C158.835 15.5168 158.621 15.4765 158.405 15.4815C158.186 15.4787 157.969 15.5198 157.766 15.6024C157.563 15.685 157.379 15.8073 157.224 15.9622C157.069 16.1172 156.947 16.3015 156.864 16.5044C156.782 16.7073 156.741 16.9247 156.744 17.1437H156.743Z" fill="white"/>
</g>
<defs>
<clipPath id="clip0">
<rect width="192.374" height="56.9997" fill="white" transform="translate(0.473999)"/>
</clipPath>
</defs>
</svg>
