<svg width="193" height="57" viewBox="0 0 193 57" fill="none" xmlns="http://www.w3.org/2000/svg">
<g clip-path="url(#clip0)">
<path d="M185.249 0H7.12496C3.18996 0 0 3.18996 0 7.12496V49.8748C0 53.8098 3.18996 56.9997 7.12496 56.9997H185.249C189.184 56.9997 192.374 53.8098 192.374 49.8748V7.12496C192.374 3.18996 189.184 0 185.249 0Z" fill="black"/>
<path d="M185.249 1.13995C186.836 1.14179 188.357 1.77298 189.479 2.89504C190.601 4.01711 191.232 5.53842 191.234 7.12521V49.875C191.232 51.4618 190.601 52.9831 189.479 54.1051C188.357 55.2272 186.836 55.8584 185.249 55.8603H7.12496C5.53816 55.8584 4.01688 55.2272 2.89487 54.1052C1.77286 52.9831 1.14175 51.4618 1.13999 49.875V7.12521C1.14172 5.5384 1.77282 4.01707 2.89484 2.895C4.01686 1.77293 5.53816 1.14176 7.12496 1.13995H185.249ZM185.249 0.000244141H7.12496C5.23701 0.0057704 3.42795 0.758209 2.09296 2.0932C0.757964 3.4282 0.00552626 5.23725 0 7.12521L0 49.875C0.00552626 51.763 0.757964 53.572 2.09296 54.907C3.42795 56.242 5.23701 56.9944 7.12496 57H185.249C187.137 56.9944 188.946 56.242 190.281 54.907C191.616 53.572 192.369 51.763 192.374 49.875V7.12521C192.369 5.23725 191.616 3.4282 190.281 2.0932C188.946 0.758209 187.137 0.0057704 185.249 0.000244141Z" fill="#A6A6A6"/>
<path d="M67.5707 14.5966C67.5966 15.1195 67.5158 15.6422 67.3332 16.1329C67.1507 16.6236 66.8702 17.072 66.5088 17.4508C66.1038 17.8708 65.6147 18.2006 65.0734 18.4186C64.5322 18.6366 63.951 18.7378 63.368 18.7157C62.7812 18.721 62.1993 18.6089 61.6564 18.386C61.1136 18.1632 60.6207 17.8341 60.2069 17.418C59.7931 17.002 59.4666 16.5074 59.2467 15.9634C59.0267 15.4193 58.9177 14.8368 58.9261 14.2501C58.9178 13.6633 59.0268 13.0808 59.2468 12.5368C59.4667 11.9927 59.7932 11.4982 60.207 11.0821C60.6208 10.666 61.1136 10.3368 61.6564 10.1138C62.1993 9.89087 62.7812 9.77864 63.368 9.78374C63.9713 9.78191 64.5685 9.90389 65.1228 10.1421C65.6376 10.3508 66.0959 10.6781 66.4602 11.0974L65.7086 11.8495C65.4223 11.5125 65.0623 11.2457 64.6564 11.0698C64.2506 10.8939 63.8097 10.8136 63.368 10.8351C62.9232 10.8328 62.4826 10.9203 62.0725 11.0923C61.6624 11.2643 61.2913 11.5173 60.9812 11.8362C60.6712 12.155 60.4288 12.5332 60.2684 12.9479C60.108 13.3627 60.0329 13.8056 60.0477 14.2501C60.0371 14.9158 60.2245 15.5697 60.586 16.1289C60.9475 16.688 61.4669 17.1272 62.0784 17.3908C62.6898 17.6543 63.3658 17.7304 64.0205 17.6093C64.6752 17.4881 65.2792 17.1753 65.756 16.7105C66.1947 16.2377 66.449 15.6231 66.4726 14.9785H63.368V13.9516H67.5108C67.55 14.1644 67.57 14.3803 67.5707 14.5966Z" fill="white" stroke="white" stroke-width="0.284999" stroke-miterlimit="10"/>
<path d="M74.1393 11.0257H70.2457V13.7365H73.7567V14.7636H70.2457V17.4744H74.1393V18.5251H69.1477V9.9751H74.1393V11.0257Z" fill="white" stroke="white" stroke-width="0.284999" stroke-miterlimit="10"/>
<path d="M78.7719 18.5251H77.6725V11.0257H75.2845V9.9751H81.1599V11.0257H78.7719V18.5251Z" fill="white" stroke="white" stroke-width="0.284999" stroke-miterlimit="10"/>
<path d="M85.4113 18.5251V9.9751H86.5092V18.5251H85.4113Z" fill="white" stroke="white" stroke-width="0.284999" stroke-miterlimit="10"/>
<path d="M91.3825 18.5251H90.2831V11.0257H87.8953V9.9751H93.7705V11.0257H91.3825V18.5251Z" fill="white" stroke="white" stroke-width="0.284999" stroke-miterlimit="10"/>
<path d="M104.893 17.4202C104.06 18.2499 102.933 18.7158 101.758 18.7158C100.583 18.7158 99.4556 18.2499 98.6234 17.4202C98.2117 17.0032 97.8881 16.5077 97.6717 15.9631C97.4554 15.4185 97.3507 14.836 97.364 14.2502C97.3507 13.6643 97.4554 13.0818 97.6717 12.5372C97.8881 11.9926 98.2117 11.4971 98.6234 11.0801C99.0348 10.6687 99.5232 10.3424 100.061 10.12C100.598 9.89753 101.175 9.7833 101.756 9.78382C102.338 9.78433 102.914 9.89958 103.451 10.123C103.989 10.3464 104.476 10.6735 104.887 11.0857C105.299 11.5016 105.623 11.996 105.841 12.5396C106.058 13.0832 106.164 13.6649 106.152 14.2502C106.165 14.836 106.06 15.4184 105.844 15.9629C105.627 16.5074 105.304 17.003 104.893 17.4202ZM99.4347 16.7043C100.051 17.3196 100.886 17.6652 101.757 17.6652C102.628 17.6652 103.464 17.3196 104.08 16.7043C104.396 16.3807 104.643 15.9964 104.806 15.5746C104.97 15.1528 105.046 14.7022 105.03 14.2502C105.046 13.7981 104.97 13.3476 104.806 12.9257C104.643 12.5039 104.396 12.1196 104.08 11.796C103.464 11.1807 102.628 10.8352 101.757 10.8352C100.886 10.8352 100.051 11.1807 99.4347 11.796C99.1191 12.1199 98.8723 12.5043 98.7092 12.926C98.5461 13.3478 98.47 13.7982 98.4856 14.2502C98.47 14.7021 98.5461 15.1525 98.7092 15.5743C98.8723 15.9961 99.1191 16.3804 99.4347 16.7043Z" fill="white" stroke="white" stroke-width="0.284999" stroke-miterlimit="10"/>
<path d="M107.694 18.5251V9.9751H109.031L113.187 16.6263H113.234L113.187 14.9785V9.9751H114.286V18.5251H113.139L108.792 11.5517H108.745L108.792 13.1994V18.5251H107.694Z" fill="white" stroke="white" stroke-width="0.284999" stroke-miterlimit="10"/>
<path d="M97.0932 30.9961C95.8955 31.0006 94.7259 31.3599 93.7323 32.0287C92.7386 32.6974 91.9654 33.6455 91.5102 34.7534C91.055 35.8612 90.9382 37.0791 91.1747 38.2533C91.4111 39.4274 91.9902 40.5052 92.8387 41.3505C93.6872 42.1958 94.7672 42.7708 95.9422 43.0028C97.1173 43.2348 98.3347 43.1134 99.4408 42.654C100.547 42.1946 101.492 41.4177 102.157 40.4215C102.822 39.4253 103.177 38.2544 103.177 37.0567C103.189 36.2556 103.039 35.4603 102.737 34.7182C102.435 33.976 101.987 33.3022 101.42 32.7367C100.852 32.1713 100.177 31.7258 99.4334 31.4268C98.6901 31.1277 97.8942 30.9813 97.0932 30.9961ZM97.0932 40.7299C96.3556 40.7825 95.6192 40.6118 94.98 40.2401C94.3407 39.8683 93.8282 39.3127 93.5092 38.6456C93.1901 37.9784 93.0793 37.2307 93.1912 36.4997C93.3031 35.7688 93.6324 35.0884 94.1363 34.5472C94.6403 34.0061 95.2955 33.6292 96.0167 33.4656C96.7378 33.302 97.4915 33.3593 98.1797 33.6301C98.8678 33.9009 99.4585 34.3725 99.8747 34.9837C100.291 35.5949 100.514 36.3172 100.514 37.0567C100.536 37.5239 100.465 37.9908 100.304 38.43C100.143 38.8692 99.8962 39.2718 99.5774 39.6141C99.2587 39.9564 98.8747 40.2314 98.4481 40.423C98.0214 40.6147 97.5607 40.719 97.0932 40.7299ZM83.8216 30.9961C82.6239 31.0006 81.4544 31.3599 80.4607 32.0286C79.467 32.6973 78.6937 33.6454 78.2385 34.7533C77.7833 35.8611 77.6665 37.079 77.903 38.2532C78.1394 39.4274 78.7184 40.5052 79.567 41.3505C80.4155 42.1958 81.4955 42.7708 82.6705 43.0028C83.8456 43.2348 85.063 43.1134 86.1691 42.654C87.2753 42.1946 88.2205 41.4177 88.8854 40.4215C89.5504 39.4253 89.9052 38.2545 89.9052 37.0567C89.917 36.2556 89.7675 35.4604 89.4656 34.7182C89.1638 33.9761 88.7157 33.3022 88.1482 32.7368C87.5806 32.1714 86.9051 31.7259 86.1618 31.4268C85.4185 31.1278 84.6227 30.9813 83.8216 30.9961ZM83.8216 40.7299C83.084 40.7825 82.3477 40.6118 81.7084 40.2401C81.0692 39.8683 80.5567 39.3127 80.2376 38.6456C79.9186 37.9784 79.8078 37.2307 79.9197 36.4997C80.0315 35.7688 80.3609 35.0884 80.8648 34.5472C81.3688 34.0061 82.024 33.6292 82.7451 33.4656C83.4663 33.302 84.22 33.3593 84.9081 33.6301C85.5963 33.9009 86.1869 34.3725 86.6032 34.9837C87.0195 35.5949 87.2422 36.3172 87.2422 37.0567C87.2646 37.5239 87.1933 37.9908 87.0325 38.43C86.8717 38.8692 86.6247 39.2718 86.3059 39.6141C85.9872 39.9564 85.6032 40.2314 85.1765 40.4231C84.7499 40.6147 84.2892 40.719 83.8216 40.7299ZM68.0344 32.8557V35.4268H74.1871C74.0983 36.6328 73.6048 37.7734 72.7866 38.6638C72.1701 39.2923 71.4286 39.7845 70.6101 40.1088C69.7915 40.433 68.9141 40.582 68.0344 40.5462C66.2361 40.5219 64.5196 39.7904 63.2565 38.5101C61.9934 37.2297 61.2852 35.5035 61.2852 33.705C61.2852 31.9065 61.9934 30.1802 63.2565 28.8999C64.5196 27.6196 66.2361 26.8881 68.0344 26.8637C69.7618 26.8412 71.4283 27.5011 72.6719 28.7003L74.4855 26.8867C73.637 26.0467 72.6293 25.3845 71.5216 24.939C70.4138 24.4936 69.2283 24.2738 68.0344 24.2925C66.7868 24.2743 65.5481 24.5044 64.3902 24.9692C63.2323 25.4341 62.1783 26.1245 61.2897 27.0004C60.401 27.8762 59.6953 28.92 59.2136 30.071C58.7319 31.222 58.4839 32.4573 58.4839 33.705C58.4839 34.9527 58.7319 36.188 59.2136 37.339C59.6953 38.49 60.401 39.5338 61.2897 40.4096C62.1783 41.2855 63.2323 41.9759 64.3902 42.4407C65.5481 42.9056 66.7868 43.1357 68.0344 43.1175C69.2534 43.1681 70.4693 42.9588 71.6013 42.5036C72.7333 42.0485 73.7555 41.3578 74.6002 40.4774C76.0999 38.8405 76.8992 36.6815 76.8272 34.4627C76.8331 33.9238 76.7869 33.3857 76.6893 32.8557H68.0344ZM132.598 34.8528C132.234 33.7551 131.541 32.796 130.613 32.106C129.684 31.416 128.566 31.0285 127.41 30.9961C126.631 31.0009 125.862 31.1636 125.148 31.4743C124.434 31.785 123.79 32.2373 123.256 32.8038C122.721 33.3703 122.307 34.0392 122.039 34.7702C121.771 35.5012 121.653 36.2791 121.694 37.0567C121.676 37.8535 121.82 38.6457 122.115 39.386C122.41 40.1262 122.852 40.7993 123.414 41.365C123.975 41.9307 124.645 42.3775 125.383 42.6786C126.121 42.9797 126.912 43.129 127.709 43.1175C128.707 43.123 129.691 42.8805 130.573 42.4117C131.454 41.9429 132.205 41.2624 132.759 40.4315L130.693 39.0541C130.383 39.5682 129.946 39.9929 129.422 40.2867C128.899 40.5805 128.309 40.7332 127.709 40.7299C127.091 40.7535 126.481 40.5911 125.957 40.2636C125.433 39.9361 125.019 39.4587 124.77 38.8934L132.874 35.5417L132.598 34.8528ZM124.334 36.8732C124.305 36.4321 124.365 35.9897 124.51 35.5719C124.654 35.1542 124.88 34.7694 125.175 34.4402C125.47 34.111 125.828 33.8439 126.228 33.6546C126.627 33.4653 127.06 33.3576 127.502 33.3378C127.962 33.3075 128.42 33.4133 128.82 33.6419C129.22 33.8705 129.544 34.2119 129.752 34.6234L124.334 36.8732ZM117.745 42.7501H120.408V24.9354H117.745V42.7501ZM113.383 32.3505H113.291C112.886 31.9107 112.392 31.5623 111.842 31.3287C111.292 31.0951 110.698 30.9817 110.1 30.9961C108.537 31.0626 107.061 31.7302 105.978 32.8595C104.896 33.9889 104.292 35.4926 104.292 37.0568C104.292 38.621 104.896 40.1247 105.978 41.2541C107.061 42.3834 108.537 43.051 110.1 43.1175C110.7 43.1335 111.297 43.0185 111.848 42.7806C112.399 42.5428 112.891 42.1877 113.291 41.7401H113.383V42.6125C113.383 44.9312 112.144 46.1708 110.146 46.1708C109.48 46.1549 108.835 45.9411 108.291 45.5568C107.747 45.1725 107.33 44.635 107.093 44.0128L104.774 44.9771C105.211 46.0411 105.956 46.9504 106.913 47.5884C107.87 48.2265 108.996 48.5642 110.146 48.5584C113.268 48.5584 115.908 46.7219 115.908 42.2451V31.3633H113.383V32.3505ZM110.33 40.7299C109.409 40.6519 108.552 40.2311 107.927 39.5509C107.302 38.8706 106.955 37.9805 106.955 37.0568C106.955 36.133 107.302 35.2429 107.927 34.5627C108.552 33.8825 109.409 33.4617 110.33 33.3837C110.788 33.406 111.237 33.5203 111.649 33.7198C112.062 33.9193 112.431 34.1999 112.733 34.5448C113.035 34.8897 113.264 35.2919 113.408 35.7274C113.551 36.1629 113.605 36.6228 113.567 37.0797C113.603 37.5337 113.546 37.9903 113.402 38.4222C113.257 38.854 113.027 39.2522 112.724 39.593C112.422 39.9338 112.054 40.2101 111.643 40.4055C111.232 40.6008 110.785 40.7112 110.33 40.7299ZM145.073 24.9357H138.701V42.7501H141.36V36.0008H145.073C145.825 36.042 146.577 35.9295 147.284 35.6701C147.991 35.4107 148.638 35.0098 149.185 34.492C149.732 33.9742 150.168 33.3504 150.466 32.6585C150.763 31.9667 150.917 31.2214 150.917 30.4683C150.917 29.7151 150.763 28.9698 150.466 28.278C150.168 27.5862 149.732 26.9623 149.185 26.4445C148.638 25.9267 147.991 25.5258 147.284 25.2664C146.577 25.007 145.825 24.8945 145.073 24.9357ZM145.141 33.5216H141.36V27.4151H145.141C145.548 27.4067 145.952 27.4794 146.329 27.6291C146.707 27.7787 147.051 28.0023 147.342 28.2866C147.632 28.571 147.863 28.9104 148.02 29.2851C148.177 29.6597 148.259 30.062 148.259 30.4683C148.259 30.8747 148.177 31.277 148.02 31.6516C147.863 32.0262 147.632 32.3657 147.342 32.65C147.051 32.9344 146.707 33.1579 146.329 33.3076C145.952 33.4573 145.548 33.53 145.141 33.5216ZM161.574 30.9633C160.604 30.9066 159.638 31.1345 158.795 31.619C157.952 32.1035 157.269 32.8235 156.83 33.6906L159.19 34.6761C159.424 34.2457 159.779 33.8929 160.21 33.6609C160.642 33.4289 161.132 33.3277 161.62 33.3697C162.294 33.3038 162.967 33.5081 163.491 33.9377C164.016 34.3673 164.348 34.9872 164.416 35.6615V35.8449C163.562 35.3913 162.609 35.1551 161.643 35.1573C159.099 35.1573 156.509 36.5554 156.509 39.1681C156.534 39.7188 156.669 40.2588 156.906 40.7562C157.144 41.2537 157.478 41.6983 157.891 42.0639C158.304 42.4294 158.785 42.7083 159.308 42.8841C159.83 43.0599 160.383 43.1289 160.932 43.0871C161.602 43.1266 162.269 42.9858 162.866 42.6794C163.463 42.3731 163.966 41.9124 164.324 41.3454H164.416V42.7205H166.983V35.8908C166.983 32.728 164.622 30.9633 161.574 30.9633ZM161.253 40.7265C160.382 40.7265 159.167 40.2912 159.167 39.2139C159.167 37.8389 160.68 37.3116 161.986 37.3116C162.835 37.2891 163.674 37.4949 164.416 37.9076C164.318 38.6803 163.944 39.3915 163.363 39.9097C162.781 40.4279 162.032 40.718 161.253 40.7265ZM176.333 31.3529L173.285 39.0764H173.193L170.031 31.3529H167.166L171.91 42.1475L169.206 48.1521H171.979L179.29 31.3529H176.333ZM152.384 42.7501H155.042V24.9357H152.384V42.7501Z" fill="white"/>
<path d="M14.8701 10.7416C14.4028 11.3003 14.1669 12.0166 14.2106 12.7436V44.2589C14.1668 44.9859 14.4027 45.7022 14.8701 46.2609L14.9756 46.3636L32.6298 28.7095V28.293L14.9756 10.6382L14.8701 10.7416Z" fill="url(#paint0_linear)"/>
<path d="M38.5145 34.5968L32.6301 28.7095V28.293L38.5159 22.4072L38.6486 22.4829L45.6208 26.4445C47.6124 27.576 47.6124 29.4273 45.6208 30.5595L38.6486 34.5211L38.5145 34.5968Z" fill="url(#paint1_linear)"/>
<path d="M38.648 34.5205L32.6296 28.5015L14.8699 46.261C15.2757 46.6189 15.7939 46.8236 16.3347 46.8396C16.8755 46.8555 17.4049 46.6818 17.8312 46.3485L38.648 34.5205Z" fill="url(#paint2_linear)"/>
<path d="M38.648 22.4822L17.8312 10.6542C17.4049 10.3209 16.8755 10.1471 16.3347 10.1631C15.7939 10.1791 15.2757 10.3838 14.8699 10.7417L32.6296 28.5014L38.648 22.4822Z" fill="url(#paint3_linear)"/>
<path opacity="0.2" d="M38.5153 34.3878L17.8312 46.1402C17.4213 46.4521 16.9212 46.6223 16.4061 46.6251C15.8911 46.6278 15.3891 46.463 14.976 46.1554L14.8699 46.2616L14.9753 46.3643L14.976 46.3636C15.3891 46.6713 15.8911 46.8363 16.4061 46.8336C16.9212 46.8308 17.4214 46.6605 17.8312 46.3484L38.648 34.5203L38.5153 34.3878Z" fill="black"/>
<path opacity="0.12" d="M14.8701 46.0535C14.4028 45.4948 14.1669 44.7785 14.2106 44.0515V44.2597C14.1669 44.9867 14.4028 45.703 14.8701 46.2617L14.9762 46.1555L14.8701 46.0535Z" fill="black"/>
<path opacity="0.12" d="M45.6207 30.3506L38.5159 34.3879L38.6485 34.5204L45.6207 30.5588C46.0309 30.3808 46.3858 30.0961 46.6485 29.7344C46.9112 29.3726 47.0722 28.947 47.1146 28.502C47.0264 28.905 46.8455 29.282 46.5862 29.6029C46.3269 29.9238 45.9963 30.1798 45.6207 30.3506Z" fill="black"/>
<path opacity="0.25" d="M17.8317 10.8632L45.6208 26.6521C45.9965 26.8229 46.3272 27.079 46.5865 27.4C46.8458 27.7211 47.0266 28.0982 47.1146 28.5014C47.0725 28.0562 46.9117 27.6304 46.6489 27.2685C46.3862 26.9066 46.0311 26.6218 45.6208 26.4439L17.8317 10.655C15.8401 9.52338 14.2109 10.4633 14.2109 12.7444V12.9526C14.2109 10.6716 15.8401 9.73172 17.8317 10.8632Z" fill="white"/>
</g>
<defs>
<linearGradient id="paint0_linear" x1="31.0642" y1="12.4113" x2="7.1494" y2="36.3261" gradientUnits="userSpaceOnUse">
<stop stop-color="#00A0FF"/>
<stop offset="0.00657" stop-color="#00A1FF"/>
<stop offset="0.2601" stop-color="#00BEFF"/>
<stop offset="0.5122" stop-color="#00D2FF"/>
<stop offset="0.7604" stop-color="#00DFFF"/>
<stop offset="1" stop-color="#00E3FF"/>
</linearGradient>
<linearGradient id="paint1_linear" x1="48.2138" y1="28.502" x2="13.7334" y2="28.502" gradientUnits="userSpaceOnUse">
<stop stop-color="#FFE000"/>
<stop offset="0.4087" stop-color="#FFBD00"/>
<stop offset="0.7754" stop-color="#FFA500"/>
<stop offset="1" stop-color="#FF9C00"/>
</linearGradient>
<linearGradient id="paint2_linear" x1="35.3777" y1="31.772" x2="2.94734" y2="64.2024" gradientUnits="userSpaceOnUse">
<stop stop-color="#FF3A44"/>
<stop offset="1" stop-color="#C31162"/>
</linearGradient>
<linearGradient id="paint3_linear" x1="10.3981" y1="0.251126" x2="24.8797" y2="14.7326" gradientUnits="userSpaceOnUse">
<stop stop-color="#32A071"/>
<stop offset="0.0685" stop-color="#2DA771"/>
<stop offset="0.4762" stop-color="#15CF74"/>
<stop offset="0.8009" stop-color="#06E775"/>
<stop offset="1" stop-color="#00F076"/>
</linearGradient>
<clipPath id="clip0">
<rect width="192.374" height="57" fill="white"/>
</clipPath>
</defs>
</svg>
